<?xml version="1.0" encoding="utf-8"?>
<!-- Generator: Adobe Illustrator 24.0.1, SVG Export Plug-In . SVG Version: 6.00 Build 0)  -->
<svg version="1.1" id="Layer_1" xmlns="http://www.w3.org/2000/svg" xmlns:xlink="http://www.w3.org/1999/xlink" x="0px" y="0px"
	 viewBox="0 0 512 512" style="enable-background:new 0 0 512 512;" xml:space="preserve">
<style type="text/css">
	.st0{opacity:0.984;fill-rule:evenodd;clip-rule:evenodd;fill:#F9FAF9;enable-background:new    ;}
</style>
<path class="st0" d="M192,37.5c-0.7-9.3-0.7-18.7,0-28c2-4.5,5.2-7.9,9.5-10c4,0,8,0,12,0c4.3,2.1,7.5,5.5,9.5,10
	c0.7,9.3,0.7,18.7,0,28c-2.8,7-8,10.3-15.5,10C200,47.8,194.8,44.5,192,37.5z M133.5,77c18.4,6.3,26.9-0.2,25.5-19.5
	c-6.4-8.4-13.6-16.3-21.5-23.5c-5.1-2.3-10.4-3.1-16-2.5c-8.8,4.7-12,12-9.5,22C118.4,61.9,125.6,69.8,133.5,77z M277.5,79
	c8.4-6.4,16.3-13.6,23.5-21.5c6.3-18.2-0.2-26.9-19.5-26c-8.2,6.7-16.1,14.1-23.5,22C251.7,71.9,258.2,80.4,277.5,79z M511.5,338.5
	c0,33.7,0,67.3,0,101c-3.5,12.3-11.5,20.2-24,23.5c-14,0.5-28,0.7-42,0.5c-7.4,26.2-24.4,42.2-51,48c-7.7,0-15.3,0-23,0
	c-26.1-6.1-42.8-22.1-50-48c-44,0-88,0-132,0c-7.4,26.2-24.4,42.2-51,48c-7.7,0-15.3,0-23,0c-26.1-6.1-42.8-22.1-50-48
	c-14,0.2-28,0-42-0.5C11,459.7,3,451.8-0.5,439.5c0-96,0-192,0-288C3,139.2,11,131.3,23.5,128c45.3-0.5,90.7-0.7,136-0.5
	c-4.9-27.1,4.4-47.2,28-60.5c28.3-9.3,49.8-1.2,64.5,24.5c1.2,3.3,2.2,6.6,3,10c0.5,8.7,0.7,17.3,0.5,26c27.7-0.2,55.3,0,83,0.5
	c24.5,4.1,43.3,16.6,56.5,37.5c15.9,34.9,31.6,69.9,47,105c29.8,5.9,51.2,22.6,64,50C508.2,326.5,510,332.5,511.5,338.5z M320,255.5
	c1.2,9.2,6.3,14.3,15.5,15.5c23.3,0.5,46.7,0.7,70,0.5c-11.9-28.1-24-56.1-36.5-84c-10.7-19.3-27.2-28.6-49.5-28
	C319.3,191.5,319.5,223.5,320,255.5z M191.5,127.5c10.7,0,21.3,0,32,0c0.2-5.3,0-10.7-0.5-16c-1.9-11.7-8.7-16.7-20.5-15
	c-4.3,2.1-7.5,5.5-9.5,10C191.7,113.4,191.2,120.4,191.5,127.5z M31.5,335.5c148,0.3,296,0,444-1c-6.7-15.8-18.3-25.7-35-29.5
	c-38.3-1.3-76.6-1.9-115-2c-19.8-5.2-32.3-17.7-37.5-37.5c-0.5-35.3-0.7-70.7-0.5-106c-85.3,0-170.7,0-256,0
	C31.5,218.2,31.5,276.8,31.5,335.5z M157,436.5c-7.3-15.4-19.4-22-36.5-20c-19.8,7.2-27.3,21.2-22.5,42
	c8.4,17.1,21.9,23.3,40.5,18.5C155.6,468.6,161.8,455.1,157,436.5z M413,436.5c-7.3-15.4-19.4-22-36.5-20
	c-19.8,7.2-27.3,21.2-22.5,42c8.4,17.1,21.9,23.3,40.5,18.5C411.6,468.6,417.8,455.1,413,436.5z M479.5,367.5
	c-149.3,0-298.7,0-448,0c0,21.3,0,42.7,0,64c11.3,0,22.7,0,34,0c1.5-5.9,3.6-11.6,6.5-17c12.8-20.3,31.3-30.7,55.5-31
	c32.1,1.4,52.7,17.4,62,48c44,0,88,0,132,0c1.5-5.9,3.6-11.6,6.5-17c12.8-20.3,31.3-30.7,55.5-31c32.1,1.4,52.7,17.4,62,48
	c11.3,0,22.7,0,34,0C479.5,410.2,479.5,388.8,479.5,367.5z M144,309.5c2.8,7,8,10.3,15.5,10c7.5,0.3,12.7-3,15.5-10
	c0.5-12.7,0.7-25.3,0.5-38c12.7,0.2,25.3,0,38-0.5c7-2.8,10.3-8,10-15.5c0.3-7.5-3-12.7-10-15.5c-12.7-0.5-25.3-0.7-38-0.5
	c0.2-12.7,0-25.3-0.5-38c-4.5-8.8-11.6-12.2-21.5-10c-4.3,2.1-7.5,5.5-9.5,10c-0.5,12.7-0.7,25.3-0.5,38c-12.7-0.2-25.3,0-38,0.5
	c-7,2.8-10.3,8-10,15.5c-0.3,7.5,3,12.7,10,15.5c12.7,0.5,25.3,0.7,38,0.5C143.3,284.2,143.5,296.8,144,309.5z"/>
</svg>
