<?xml version="1.0" encoding="utf-8"?>
<!-- Generator: Adobe Illustrator 24.0.1, SVG Export Plug-In . SVG Version: 6.00 Build 0)  -->
<svg version="1.1" id="Layer_1" xmlns="http://www.w3.org/2000/svg" xmlns:xlink="http://www.w3.org/1999/xlink" x="0px" y="0px"
	 viewBox="0 0 512 512" style="enable-background:new 0 0 512 512;" xml:space="preserve" fill="#F2F3F2">
<path class="st0" d="M482,107.5c-0.6-2.2-1.6-4.2-3-6C444.2,68.7,409.3,35.8,374.5,3c-1.9-1.5-3.9-2.6-6-3.5c-72.7,0-145.3,0-218,0
	c-6.1,2.2-9.9,6.6-11.5,13c-0.5,22-0.7,44-0.5,66c-32.7-0.2-65.3,0-98,0.5c-6.2,1.9-10.1,6.1-11.5,12.5c-0.7,135.7-0.7,271.3,0,407
	c1.6,6.4,5.5,10.8,11.5,13c106.7,0,213.3,0,320,0c6.1-2.2,9.9-6.6,11.5-13c0.5-22,0.7-44,0.5-66c32.7,0.2,65.3,0,98-0.5
	c5.1-1.4,8.6-4.6,10.5-9.5C482.7,317.6,483,212.6,482,107.5z M380.5,58.5C393.3,70.1,406,82,418.5,94c-12.7,0.5-25.3,0.7-38,0.5
	C380.5,82.5,380.5,70.5,380.5,58.5z M336.5,476.5c-91,0-182,0-273,0c0-121,0-242,0-363c57,0,114,0,171,0c-0.2,26.7,0,53.3,0.5,80
	c1.1,8.7,5.9,13.9,14.5,15.5c29,0.5,58,0.7,87,0.5C336.5,298.5,336.5,387.5,336.5,476.5z M270.5,173.5c0-12,0-24,0-36
	c12.8,11.6,25.5,23.5,38,35.5C295.8,173.5,283.2,173.7,270.5,173.5z M447.5,397.5c-25,0-50,0-75,0c0.2-70,0-140-0.5-210
	c-0.7-2.4-1.7-4.8-3-7C333.8,147,298.3,113.8,262.5,81c-1.3-0.7-2.7-1.3-4-2c-28-0.5-56-0.7-84-0.5c0-14.7,0-29.3,0-44
	c56.7,0,113.3,0,170,0c-0.2,26.3,0,52.7,0.5,79c1,8.9,5.9,14.4,14.5,16.5c29.3,0.5,58.7,0.7,88,0.5
	C447.5,219.5,447.5,308.5,447.5,397.5z M103,254.5c2.9-3.7,6.4-6.4,10.5-8c38.7-0.2,77.3,0,116,0.5c10.5,3.8,14.7,11.3,12.5,22.5
	c-1.9,5.9-5.7,9.7-11.5,11.5c-39.3,0.7-78.7,0.7-118,0C101,275.3,97.9,266.4,103,254.5z M299,339.5c-2.1,4.6-5.6,7.8-10.5,9.5
	c-58.7,0.7-117.3,0.7-176,0c-11.5-5.7-14.6-14.5-9.5-26.5c2.9-3.7,6.4-6.4,10.5-8c58-0.2,116,0,174,0.5
	C298.5,319.8,302.3,327.9,299,339.5z M299,407.5c-3.2,6.2-8.4,9.7-15.5,10.5c-55.3,0.7-110.7,0.7-166,0c-8.7-0.6-14.2-5.1-16.5-13.5
	c-1.8-10.8,2.4-18.1,12.5-22c58-0.2,116,0,174,0.5C298.5,387.8,302.3,395.9,299,407.5z"/>
</svg>
