<?xml version="1.0" encoding="utf-8"?>
<!-- Generator: Adobe Illustrator 24.0.1, SVG Export Plug-In . SVG Version: 6.00 Build 0)  -->
<svg version="1.1" id="Layer_1" xmlns="http://www.w3.org/2000/svg" xmlns:xlink="http://www.w3.org/1999/xlink" x="0px" y="0px"
	 viewBox="0 0 512 512" style="enable-background:new 0 0 512 512;" xml:space="preserve" fill="#F2F3F2">
<path class="st0" d="M211,260.5c2.7-9.3-0.1-16.2-8.5-20.5c-27.7-0.5-55.3-0.7-83-0.5c0-10,0-20,0-30c27.7,0.2,55.3,0,83-0.5
	c3.2-1.4,5.7-3.5,7.5-6.5c4-9.8,1.5-17.3-7.5-22.5c-27.7-0.5-55.3-0.7-83-0.5c0-10,0-20,0-30c27.7,0.2,55.3,0,83-0.5
	c3.2-1.4,5.7-3.5,7.5-6.5c4-9.8,1.5-17.3-7.5-22.5c-27.7-0.5-55.3-0.7-83-0.5c0-10,0-20,0-30c27.7,0.2,55.3,0,83-0.5
	c3.2-1.4,5.7-3.5,7.5-6.5c4-9.8,1.5-17.3-7.5-22.5c-27.7-0.5-55.3-0.7-83-0.5c0-10,0-20,0-30c27.7,0.2,55.3,0,83-0.5
	c3.2-1.4,5.7-3.5,7.5-6.5c4-10,1.5-17.7-7.5-23c-64.7,0-129.3,0-194,0C6.8,1,5,2.3,3,3.5C2,5.3,0.8,7-0.5,8.5c0,156,0,312,0,468
	c5.3,18,17,29.7,35,35c6.7,0,13.3,0,20,0c18-5.2,29.5-16.8,34.5-35c0.3-64,0.7-128,1-192c0.8-8.8,5.7-13.7,14.5-14.5
	c32.7-0.3,65.3-0.7,98-1C206.7,267.5,209.5,264.7,211,260.5z M89,241.5c-15.3,6-25,17-29,33c-0.3,64-0.7,128-1,192
	c-3.6,14-11.7,17.5-24.5,10.5c-2.7-3-4.2-6.5-4.5-10.5c-0.5-145.7-0.7-291.3-0.5-437c20,0,40,0,60,0C89.7,100.2,89.5,170.8,89,241.5
	z M461.5,365c-31.8-9.2-59.1-2.1-82,21.5c-5.2-19.8-10.2-39.6-15-59.5c16.3-10.2,33-19.8,50-29c3-1.8,5.1-4.3,6.5-7.5
	c8.6-44.2,16.6-88.6,24-133c4.6-46.8-4.4-90.8-27-132c-4.4-8.4-9.9-15.9-16.5-22.5c-12.9-4.1-20.7,0.4-23.5,13.5
	c-10.2,66.1-20.7,132.1-31.5,198c-11-67.6-21.9-135.3-32.5-203c-1.1-3.1-2.9-5.6-5.5-7.5c-7.2-3.6-14-3.1-20.5,1.5
	c-35.2,50.4-47.9,106.1-38,167c7.1,39.4,14.5,78.7,22,118c1.4,3.2,3.5,5.7,6.5,7.5c17,9.2,33.7,18.8,50,29
	c-4.7,19.1-9.4,38.3-14,57.5c-0.2,1.4-0.9,1.9-2,1.5c-22.6-23.3-49.6-30.3-81-21c-39,17.2-55.2,47-48.5,89.5c9.5,31,30,50,61.5,57
	c8,0,16,0,24,0c30.3-6.5,50.5-24.5,60.5-54c5.5-23.4,11.4-46.8,17.5-70c6.5,24.6,12.6,49.2,18.5,74c10.9,27.4,30.8,44.1,59.5,50
	c8,0,16,0,24,0c34-8,55-29,63-63c0-8,0-16,0-24C505.6,395.7,488.9,375.9,461.5,365z M401.5,64.5c12.9,31.8,16.7,64.8,11.5,99
	c-6.7,37.1-13.7,74.1-21,111c-8.1,5.5-16.6,10-25.5,13.5C378.8,213.6,390.4,139.1,401.5,64.5z M301,274.5
	c-7.3-36.9-14.3-73.9-21-111c-5-33.9-1.5-66.9,10.5-99c12.4,74.7,24.1,149.4,35,224C317.2,284,309,279.4,301,274.5z M300,445.5
	c-7.9,25.9-25.4,37.4-52.5,34.5c-25.9-7.9-37.4-25.4-34.5-52.5c6.1-21.6,20.3-33.6,42.5-36C287.3,395.5,302.2,413.5,300,445.5z
	 M452.5,478c-26.2,7.1-45.4-1.4-57.5-25.5c-7.1-26.2,1.4-45.4,25.5-57.5c5.4-1.6,10.7-2.8,16-3.5c26.8,3.2,41.5,18.2,44,45
	C479.7,456.1,470.4,469.9,452.5,478z"/>
</svg>
