<?xml version="1.0" encoding="utf-8"?>
<!-- Generator: Adobe Illustrator 24.0.1, SVG Export Plug-In . SVG Version: 6.00 Build 0)  -->
<svg version="1.1" id="svg" xmlns="http://www.w3.org/2000/svg" xmlns:xlink="http://www.w3.org/1999/xlink" x="0px" y="0px"
	 viewBox="0 0 400 400" style="enable-background:new 0 0 400 400;" xml:space="preserve" fill="#F2F3F2">
<path class="st0" d="M341.4,274.9c0.3-0.3,0.5-0.3,1.6-0.4c0.3,0,1.1-0.6,1.7-1.2c0.6-0.6,1.4-1.1,1.7-1c0.3,0.1,0.5-0.1,0.5-0.3
	c0-0.6,2-3.1,2.4-2.8c0.9,0.8,1-10.5,1.1-106c0.1-103.4,0.1-106.4-1.1-106.4c-0.2,0-0.4-0.3-0.5-0.7c-0.3-1-3.2-4.1-3.8-4.1
	c-0.3,0-0.7-0.4-0.9-0.9c-0.2-0.5-0.4-0.6-0.4-0.3c0,0.4-0.1,0.4-0.3,0.2c-1-1.4-1.2-1.4-143.5-1.4c-118,0-140.2,0.1-141.5,0.6
	c-0.8,0.3-1.5,0.5-1.5,0.4c0-0.1-0.4,0.2-0.8,0.6S55,52,54.8,52c-0.7,0-2.7,2.3-3.8,4.6L49.8,59l-0.1,103.3
	c-0.1,67.9,0,103.6,0.3,104.1c0.2,0.4,0.6,1.1,0.8,1.6c0.2,0.4,0.4,1.1,0.4,1.4c0,0.3,0.2,0.6,0.5,0.6c0.3,0,0.8,0.5,1.1,1
	s0.7,1,1,1c0.2,0,0.8,0.5,1.2,1c0.4,0.6,1,0.9,1.3,0.8c0.3-0.1,0.5,0,0.5,0.2c0,0.2,0.3,0.4,0.8,0.4s0.9,0.2,1,0.4
	C58.9,275.3,340.9,275.4,341.4,274.9z M75.2,112.4V75.2H200h124.8v37.2v37.2l-19.9,0c-10.9,0-20.1,0-20.4,0c-0.3,0-0.6,0.1-0.7,0.4
	c-0.1,0.2-0.5,0.4-0.8,0.4c-1.4,0-4.6,2.7-7.2,6.3c-1.5,2-2.9,3.6-3.2,3.5c-0.2-0.1-0.3-0.1-0.1,0.1c0.2,0.2-0.3,1.1-1.1,2.1
	c-0.8,1-1.3,1.7-1.2,1.7s-0.2,0.4-0.8,0.9c-0.6,0.5-1,1.1-1,1.3c0,0.2-0.6,1-1.4,1.8c-0.8,0.8-1.4,1.6-1.4,1.8
	c0,0.6-1.8,2.5-2.3,2.5c-0.4,0-0.5-6.9-0.5-31.2c0-30.8-0.1-34.4-1.3-34.4c-0.2,0-0.3-0.4-0.3-0.8s-0.2-0.8-0.4-0.8
	c-0.2,0-0.4-0.2-0.4-0.4c0-0.9-3.3-3.6-5.3-4.2c-0.4-0.1-0.7-0.4-0.7-0.6c0-0.5-7.6-0.2-9,0.4c-0.6,0.3-1.7,0.9-2.4,1.4
	c-0.7,0.5-1.3,0.8-1.3,0.7c0-0.3-2,1.8-2.1,2.1c0,0.2-0.6,0.9-1.3,1.7c-0.7,0.8-1.1,1.4-0.9,1.4c0.2,0,0,0.2-0.3,0.5
	c-0.3,0.3-1,1.1-1.6,1.9c-0.5,0.8-1.4,1.9-2,2.5c-0.6,0.6-1,1.3-1,1.4c0,0.3-0.8,1.2-2,2.5c-0.4,0.4-0.7,0.8-0.5,0.8
	c0.2,0,0,0.3-0.4,0.8c-1.2,1.4-1.7,2-1.7,2.3c0,0.5-1.5,2.1-2,2.1c-0.3,0-0.4,0.2-0.2,0.3c0.1,0.2-0.1,0.8-0.6,1.3
	c-0.4,0.5-0.8,1-0.8,1.2c0,0.1-0.6,1-1.4,1.8c-0.8,0.9-1.4,1.7-1.4,1.9c0,0.2-0.2,0.2-0.5,0c-0.3-0.2-0.4-0.1-0.2,0.2
	c0.2,0.2-0.2,0.8-0.7,1.3c-0.5,0.5-1.2,1.4-1.5,2c-0.3,0.6-0.6,1.2-0.8,1.2c-0.2,0-0.4,0.3-0.6,0.7c-0.1,0.4-0.9,1.4-1.6,2.3
	c-0.8,0.8-1.4,1.6-1.4,1.8c0,0.1-0.6,1-1.4,1.8c-0.8,0.9-1.4,1.7-1.4,1.9c0,0.2-0.5,0.8-1,1.3c-0.6,0.5-1,1.2-1,1.3s-0.6,1-1.4,1.9
	s-1.4,1.7-1.4,2c0,0.9-1.1,0.9-12,1c-6.3,0-10.9,0.2-11,0.4c-0.1,0.2-0.5,0.4-0.8,0.4c-1.4,0-4.6,2.7-7.2,6.3
	c-1.5,2-2.9,3.6-3.2,3.5c-0.2-0.1-0.3-0.1-0.1,0.1c0.2,0.2-0.3,1.1-1.1,2.1c-0.8,1-1.3,1.7-1.2,1.7c0.1,0-0.2,0.4-0.8,0.9
	c-0.6,0.5-1,1.1-1,1.3c0,0.2-0.6,1-1.4,1.8c-0.8,0.8-1.4,1.6-1.4,1.8c0,0.6-1.8,2.5-2.3,2.5c-0.4,0-0.5-6.9-0.5-31.2
	c0-30.8-0.1-34.4-1.3-34.4c-0.2,0-0.3-0.4-0.3-0.8s-0.2-0.8-0.4-0.8c-0.2,0-0.4-0.2-0.4-0.4c0-0.9-3.3-3.6-5.3-4.2
	c-0.4-0.1-0.7-0.4-0.7-0.6c0-0.5-7.6-0.2-9,0.4c-0.7,0.3-1.4,0.6-1.6,0.6c-0.2,0.1-0.9,0.5-1.4,0.9c-0.5,0.5-1.4,1.2-1.9,1.6
	c-0.5,0.4-0.9,0.9-0.9,1.1c0,0.2-0.5,0.9-1.2,1.6c-0.7,0.7-1,1.3-0.9,1.3c0.2,0,0,0.2-0.3,0.5c-0.3,0.3-1,1.1-1.6,1.9
	c-0.5,0.8-1.4,1.9-2,2.5c-0.6,0.6-1,1.3-1,1.4c0,0.3-0.8,1.2-2,2.5c-0.4,0.4-0.7,0.8-0.5,0.8c0.2,0,0,0.3-0.4,0.8
	c-1.2,1.4-1.7,2-1.7,2.3c0,0.5-1.5,2.1-2,2.1c-0.3,0-0.4,0.2-0.2,0.3c0.1,0.2-0.1,0.8-0.6,1.3c-0.4,0.5-0.8,1-0.8,1.2
	c0,0.1-0.6,1-1.4,1.8c-0.8,0.9-1.4,1.7-1.4,1.9c0,0.2-0.2,0.2-0.5,0c-0.3-0.2-0.4-0.1-0.2,0.2c0.2,0.2-0.2,0.8-0.7,1.3
	c-0.5,0.5-1.2,1.4-1.5,2c-0.3,0.6-0.6,1.2-0.8,1.2c-0.2,0-0.4,0.3-0.6,0.7c-0.1,0.4-0.9,1.4-1.6,2.3c-0.8,0.8-1.4,1.6-1.4,1.8
	c0,0.1-0.6,1-1.4,1.8c-0.8,0.9-1.4,1.7-1.4,1.9c0,0.2-0.4,0.8-1,1.3c-0.5,0.5-1,1.2-1,1.3s-0.6,1-1.4,1.9s-1.4,1.7-1.4,2
	c0,0.9-1.2,1-16.4,1H75.2V112.4z M75.2,249.6v-37.2v-37.2h20.3c20.6,0,22.2-0.1,23.7-1.5c0.3-0.3,0.7-0.5,0.9-0.5
	c0.6,0,3.6-3.3,3.6-3.9c0-0.3,0.2-0.4,0.4-0.3c0.2,0.1,0.6-0.3,0.8-1s0.7-1.2,0.8-1.2c0.2,0,0.4-0.3,0.4-0.6c0-0.3,0.2-0.6,0.4-0.6
	c0.2,0,0.7-0.5,1-1.1c0.3-0.6,1-1.6,1.5-2.2c0.5-0.6,1.2-1.5,1.5-1.9c0.3-0.5,0.8-1.1,1-1.3c0.2-0.2,0.6-0.8,0.7-1.2
	c0.2-0.4,0.4-0.6,0.5-0.5c0.1,0.1,0.6-0.4,1-1.2c0.4-0.8,1.1-1.8,1.4-2.2c0.4-0.4,0.9-1,1.3-1.4c0.5-0.6,0.6,2.8,0.7,31.3
	c0.1,24.3,0.2,32.2,0.6,33c0.3,0.5,0.8,1.5,1.2,2.1s0.7,1.4,0.7,1.7c0,0.4,0.4,0.9,1,1.1c0.5,0.3,1,0.6,1,0.8c0,0.2,0.2,0.3,0.5,0.3
	c0.3,0,0.9,0.4,1.4,1s1.1,0.9,1.4,0.8s0.6,0,0.8,0.2c0.2,0.3,1.9,0.4,4.5,0.4c2.7,0,4.1-0.1,4-0.4c-0.1-0.2,0.2-0.4,0.8-0.4
	c0.6,0,1-0.2,1-0.4c0-0.2,0.2-0.4,0.4-0.4c0.2,0,1.1-0.5,1.9-1c0.8-0.5,1.3-1,1.1-1c-0.2,0,0-0.3,0.4-0.7c0.4-0.4,1.2-1.3,1.8-2.1
	c0.5-0.7,1.2-1.6,1.5-1.8c0.3-0.3,0.5-0.7,0.5-0.9c0-0.2,0.3-0.7,0.7-1.1s1.2-1.4,1.8-2.2c0.6-0.8,1.3-1.7,1.6-2
	c0.3-0.3,1-1.3,1.7-2.2c0.6-0.9,1.6-2.1,2.1-2.7c0.5-0.5,1-1.3,1.2-1.8c0.1-0.4,0.5-0.8,0.7-0.7c0.2,0.1,0.6-0.4,0.9-1.1
	c0.2-0.7,0.9-1.6,1.5-2.2c0.6-0.5,1.1-1.2,1.1-1.4c0-0.3,0.4-0.8,0.8-1.2c0.4-0.4,0.8-1,0.8-1.3c0-0.3,0.2-0.5,0.4-0.3
	c0.2,0.1,0.4,0,0.4-0.2s0.5-1,1.2-1.7s1.2-1.5,1.2-1.8c0-0.3,0.1-0.5,0.3-0.5c0.2,0,0.7-0.7,1.2-1.6c0.5-0.9,1.3-1.8,1.7-2.1
	c0.4-0.3,0.8-0.7,0.8-0.9c0-0.2,0.4-0.9,0.9-1.4c0.5-0.5,1.2-1.5,1.5-2.1c0.3-0.6,0.8-1.1,1.1-1.1c0.3,0,0.5-0.2,0.5-0.5
	c0-0.5,1.1-2.1,2.7-3.8c0.5-0.5,0.9-1.2,0.9-1.5c0-1.4,0.9-1.5,11.8-1.5c10.8,0,12.8-0.2,14.2-1.5c0.3-0.3,0.7-0.5,0.9-0.5
	c0.6,0,3.6-3.3,3.6-3.9c0-0.3,0.2-0.4,0.4-0.3c0.2,0.1,0.6-0.3,0.8-1c0.3-0.7,0.7-1.2,0.8-1.2c0.2,0,0.4-0.3,0.4-0.6
	c0-0.3,0.2-0.6,0.4-0.6c0.2,0,0.7-0.5,1-1.1c0.3-0.6,1-1.6,1.5-2.2c0.5-0.6,1.2-1.5,1.5-1.9c0.3-0.5,0.8-1.1,1-1.3
	c0.2-0.2,0.6-0.8,0.7-1.2c0.2-0.4,0.4-0.6,0.5-0.5c0.1,0.1,0.6-0.4,1-1.2c0.4-0.8,1.1-1.8,1.4-2.2c0.4-0.4,0.9-1,1.3-1.4
	c0.5-0.6,0.6,2.8,0.7,31.3c0.1,33.3,0.1,32.5,1.8,35.1c0.4,0.6,0.7,1.4,0.7,1.7c0,0.4,0.4,0.9,1,1.1c0.5,0.3,1,0.6,1,0.8
	c0,0.2,0.2,0.3,0.5,0.3c0.3,0,0.9,0.4,1.4,0.9c1.1,1.1,1.6,1.2,6.6,1.4c2.9,0.1,3.9,0.1,3.9-0.3c0-0.3,0.1-0.4,0.3-0.2
	c0.1,0.1,1.1-0.2,2.2-0.8c1.9-1,3-2.1,5.1-4.9c0.5-0.7,1.2-1.6,1.5-1.9c0.3-0.3,0.5-0.7,0.5-0.9c0-0.2,0.3-0.7,0.7-1.1
	c0.4-0.4,1.2-1.4,1.8-2.2c0.6-0.8,1.3-1.7,1.6-2c0.3-0.3,1-1.3,1.7-2.2c0.6-0.9,1.6-2.1,2.1-2.7c0.5-0.5,1-1.3,1.2-1.8
	c0.1-0.4,0.5-0.8,0.7-0.7c0.2,0.1,0.6-0.4,0.9-1.1c0.2-0.7,0.9-1.6,1.5-2.2c0.6-0.5,1.1-1.2,1.1-1.4c0-0.3,0.4-0.8,0.8-1.2
	c0.4-0.4,0.8-1,0.8-1.3c0-0.3,0.2-0.5,0.4-0.3c0.2,0.1,0.4,0,0.4-0.2s0.5-1,1.2-1.7s1.2-1.5,1.2-1.8c0-0.3,0.1-0.5,0.3-0.5
	c0.2,0,0.7-0.7,1.2-1.6c0.5-0.9,1.3-1.8,1.7-2.1c0.4-0.3,0.8-0.7,0.8-0.9c0-0.2,0.4-0.9,0.9-1.4c0.5-0.5,1.2-1.5,1.5-2.1
	c0.3-0.6,0.8-1.1,1.1-1.1c0.3,0,0.5-0.2,0.5-0.5c0-0.5,1.1-2.1,2.7-3.8c0.5-0.5,0.9-1.2,0.9-1.5c0-1.4,0.7-1.5,16.3-1.5h15.3v37.2
	v37.2H200H75.2z M199.5,345.2c1.8,3.8,1.1,9.7-1.5,12.4c-0.4,0.5-0.8,1-0.8,1.3c0,0.2-0.3,0.5-0.7,0.7s-1,0.5-1.3,0.9
	c-0.8,0.8-2.3,1.6-3,1.6c-0.3,0-0.6,0.2-0.6,0.4c0,0.9-32.2,0.5-33.8-0.4c-0.8-0.4-1.6-0.8-1.8-0.8s-1.2-0.8-2.2-1.8
	c-1-1-2-1.8-2.2-1.8c-0.2,0-0.3-0.3-0.2-0.6c0.1-0.3,0.1-0.6-0.2-0.6c-0.2,0-0.4-0.4-0.4-0.8c0-0.4-0.2-0.9-0.5-1
	c-1.5-0.6-0.6-9.4,1.1-11.4c0.3-0.3,0.6-0.9,0.7-1.2c0.1-0.3,0.5-0.8,0.9-1c0.4-0.2,0.8-0.7,0.7-0.9c-0.1-0.3,0.3-0.5,0.7-0.5
	s0.8-0.2,0.8-0.4c0-0.2,0.2-0.4,0.5-0.4c0.7,0,2.7-0.9,2.7-1.3c0-0.4,32.6-0.4,33,0.1c0.2,0.2,0.8,0.4,1.4,0.5
	C194.2,338.3,198.3,342.6,199.5,345.2z M124.8,346.1c1.5,2.8,0.1,9.3-2.5,12c-1,1-1.8,2-1.7,2.1c0.1,0.1-0.4,0.4-1,0.7
	c-0.7,0.3-1.1,0.7-1,0.8c0.1,0.2-0.4,0.3-1.1,0.3c-0.7,0-1.1,0.2-1,0.4c0.1,0.2-5.8,0.4-16.1,0.4c-10.7,0-16.5-0.1-16.6-0.4
	c-0.1-0.2-0.6-0.4-1-0.4s-0.8-0.2-0.8-0.4c0-0.2-0.5-0.4-1.1-0.4c-0.6,0-1-0.1-0.8-0.2c0.3-0.3-0.7-1.4-1.3-1.4
	c-0.2,0-0.5-0.4-0.7-0.8c-0.1-0.4-0.6-0.9-1-1c-0.4-0.1-1-0.9-1.3-2c-0.3-1-0.7-1.8-0.8-1.8c-0.2,0-0.3-1.8-0.3-4s0.2-4,0.4-4
	c0.2,0,0.4-0.5,0.6-1.1c0.1-0.6,0.6-1.5,1-2.1c0.5-0.5,0.7-1.1,0.6-1.2c-0.1-0.2,0.2-0.4,0.7-0.5c0.6-0.1,0.8-0.4,0.6-0.8
	c-0.2-0.4,0-0.6,0.6-0.6c0.5,0,1.1-0.3,1.5-0.7c0.4-0.4,1.1-0.8,1.6-0.8c0.5-0.1,1.1-0.3,1.1-0.5c0.2-0.5,32.7-0.5,33.1,0
	c0.1,0.2,0.6,0.4,1,0.4c0.4,0,1.1,0.4,1.5,0.8s0.9,0.8,1.1,0.8c0.4,0,3.6,3.5,3.6,4C123.9,344,124.4,345.4,124.8,346.1z M225.1,354
	c-0.2,0-0.3-1.8-0.3-4s0.2-4,0.4-4s0.4-0.5,0.6-1.1c0.1-0.6,0.6-1.5,1-2.1c0.5-0.5,0.7-1.1,0.6-1.2c-0.1-0.2,0.2-0.4,0.7-0.5
	c0.6-0.1,0.8-0.4,0.6-0.8c-0.2-0.4,0-0.6,0.6-0.6c0.5,0,1.1-0.3,1.5-0.7c0.4-0.4,1.1-0.8,1.6-0.8c0.5-0.1,1.1-0.3,1.1-0.5
	c0.2-0.5,32.7-0.5,33.1,0c0.1,0.2,0.6,0.4,1,0.4c0.4,0,1.1,0.4,1.5,0.8s0.9,0.8,1.1,0.8c0.4,0,3.6,3.5,3.6,4c0.1,0.4,0.6,1.8,1,2.5
	c1.5,2.8,0.1,9.3-2.5,12c-1,1-1.8,2-1.7,2.1c0.1,0.1-0.4,0.4-1,0.7c-0.7,0.3-1.1,0.7-1,0.8c0.1,0.2-0.4,0.3-1.1,0.3
	c-0.7,0-1.1,0.2-1,0.4c0.1,0.2-5.8,0.4-16.1,0.4c-10.7,0-16.5-0.1-16.6-0.4c-0.1-0.2-0.6-0.4-1-0.4s-0.8-0.2-0.8-0.4
	c0-0.2-0.5-0.4-1.1-0.4c-0.6,0-1-0.1-0.8-0.2c0.3-0.3-0.7-1.4-1.3-1.4c-0.2,0-0.5-0.4-0.7-0.8c-0.1-0.4-0.6-0.9-1-1
	c-0.4-0.1-1-0.9-1.3-2C225.7,354.8,225.3,354,225.1,354z M399.6,52.6c-0.4-2.5-0.9-4.9-1.6-7.6c-0.2-0.9-0.5-2.1-0.7-2.8
	c-0.2-0.6-0.8-2.1-1.4-3.3c-0.6-1.2-1.1-2.5-1.1-2.9c0-0.4-0.4-1-0.8-1.4c-0.4-0.4-0.8-1.2-0.8-1.8c0-0.8-0.3-1.2-0.8-1.4
	c-0.4-0.1-0.8-0.6-0.8-1s-0.2-0.8-0.4-0.8c-0.2,0-0.4-0.2-0.4-0.4c0-0.5-5-7.4-6.5-8.9c-0.6-0.6-1.1-1.3-1.1-1.5s-0.2-0.4-0.4-0.4
	c-0.2,0-1.3-0.9-2.4-2c-1.1-1.1-2.2-2-2.4-2c-0.2,0-1.2-0.8-2.3-1.8c-1-1-2.1-1.8-2.4-1.8c-0.3,0-0.5-0.2-0.5-0.4
	c0-0.2-0.3-0.4-0.6-0.4s-0.6-0.2-0.6-0.4c0-0.2-0.3-0.5-0.7-0.6c-0.4-0.1-1.4-0.7-2.3-1.3c-0.9-0.6-2.4-1.4-3.4-1.8
	c-1-0.5-2.5-1.2-3.4-1.6c-2.2-1-3-1.3-4.2-1.5c-0.5-0.1-1.1-0.3-1.2-0.4c-0.1-0.2-0.7-0.3-1.2-0.4c-0.5-0.1-1.2-0.3-1.4-0.5
	c-0.2-0.2-1-0.4-1.8-0.4c-0.8-0.1-1.6-0.3-1.8-0.4c-0.7-0.5,5.2-0.5-149.4-0.6C59.3,0.1,53.3,0.1,50,0.8c-1.9,0.4-3.5,0.7-3.7,0.6
	c-0.1-0.1-0.3,0-0.4,0.2c-0.1,0.2-0.6,0.4-1.2,0.5c-0.6,0.1-1.2,0.3-1.4,0.4c-0.2,0.2-0.7,0.3-1.2,0.3S41.1,3,41,3.2
	c-0.1,0.2-0.7,0.4-1.2,0.4c-0.5,0-1,0.2-1.1,0.4s-0.6,0.5-1.2,0.5c-0.6,0-1.1,0.2-1.1,0.4s-1.2,0.9-2.6,1.6c-1.4,0.7-3,1.5-3.4,1.7
	c-0.4,0.2-0.8,0.5-0.8,0.7c0,0.2-0.3,0.3-0.6,0.3s-0.6,0.2-0.6,0.4c0,0.2-0.3,0.4-0.6,0.4s-0.6,0.2-0.6,0.4c0,0.2-0.4,0.4-0.8,0.4
	s-0.7,0.2-0.6,0.4c0.1,0.2,0.1,0.4-0.2,0.4s-1,0.5-1.7,1.2c-0.7,0.7-1.5,1.2-1.8,1.2c-0.3,0-0.5,0.2-0.5,0.4c0,0.2-0.2,0.3-0.4,0.2
	c-0.2-0.1-0.4-0.1-0.3,0.1c0.1,0.2-1.4,1.9-3.2,3.7c-1.8,1.8-3.3,3.5-3.3,3.6S13.8,23,13,23.7c-0.8,0.8-1.4,1.6-1.4,1.8
	S11.4,26,11.2,26c-0.2,0-0.4,0.4-0.6,0.8s-0.5,0.8-0.9,0.8c-0.4,0-0.6,0.2-0.5,0.6c0.1,0.3,0,0.9-0.4,1.2c-0.3,0.3-0.6,0.8-0.6,1.1
	c0,0.3-0.3,0.8-0.7,1.2c-1.2,1.1-1.5,1.7-2,3.4C5.4,36,5,36.8,4.9,36.8s-0.3,0.4-0.4,0.8c0,0.5-0.4,1.6-0.8,2.5
	c-1,2.2-1.3,3-1.5,4.5C2,45.3,1.8,45.9,1.7,46c-0.1,0.1-0.3,0.7-0.4,1.4c-0.1,0.7-0.3,2-0.6,3C0,53.1,0,349.7,0.7,350.5
	c0.3,0.3,0.5,1.1,0.5,1.7c0,0.7,0.2,1.4,0.4,1.6c0.2,0.2,0.4,0.8,0.5,1.4c0.1,0.5,0.3,1.1,0.4,1.2c0.2,0.1,0.3,0.7,0.4,1.2
	c0.1,0.5,0.4,1.4,0.6,2c0.2,0.5,0.3,1.1,0.2,1.3c-0.1,0.2,0,0.3,0.2,0.3c0.2,0,0.4,0.4,0.4,0.8s0.2,0.8,0.4,0.8
	c0.2,0,0.5,0.5,0.6,1.1c0.2,0.6,0.5,1.4,0.8,1.7c0.6,0.6,0.6,0.7,0.6,1.8c0,0.3,0.2,0.5,0.4,0.4c0.2-0.1,0.4,0,0.4,0.4
	c0,0.3,0.2,0.6,0.4,0.6s0.4,0.4,0.4,1c0,0.5,0.1,1,0.3,1.1c0.5,0.2,2.9,3.4,2.9,3.9c0,0.2,0.6,0.8,1.2,1.4c0.7,0.6,1.2,1.1,1.2,1.2
	c0,0.7,0.5,1.8,0.8,1.8c0.5,0,3.6,3.2,3.6,3.6c0,0.2,0.2,0.4,0.4,0.4c0.4,0,1.8,1,2.8,2.1c0.3,0.4,0.8,0.7,0.9,0.7
	c0.1,0,0.8,0.5,1.6,1.2c0.7,0.7,1.5,1.2,1.7,1.2c0.2,0,0.9,0.5,1.6,1.2c0.6,0.7,1.4,1.2,1.7,1.2c0.3,0,0.6,0.2,0.6,0.4
	c0,0.2,0.3,0.4,0.8,0.4s0.9,0.4,1,0.8c0.1,0.4,0.6,0.8,1,0.8c0.4,0,0.9,0.2,1,0.4c0.1,0.2,0.4,0.3,0.6,0.2c0.2-0.1,0.5,0.1,0.8,0.4
	c0.3,0.3,0.8,0.6,1.2,0.6c0.9,0,2.8,0.9,2.8,1.3c0,0.2,0.5,0.3,1,0.3c0.7,0,0.9,0.2,0.7,0.5c-0.2,0.3-0.1,0.4,0.2,0.2
	c0.2-0.2,1.1,0,1.9,0.3c0.8,0.3,1.9,0.6,2.4,0.6c0.5,0,1,0.2,1.1,0.4c0.1,0.2,0.9,0.5,1.7,0.6c0.8,0.1,2.2,0.4,3.1,0.5
	c0.9,0.2,67.9,0.3,149,0.3c152.3,0,152.1,0,153.8-1.5c0.2-0.2,0.9-0.3,1.5-0.3c0.6,0,1.6-0.3,2.1-0.6c0.5-0.3,1.1-0.5,1.4-0.4
	c0.2,0.1,0.5,0.1,0.6-0.2c0.1-0.2,0.6-0.4,1-0.4s0.8-0.2,0.8-0.4c0-0.2,0.4-0.4,0.8-0.4s0.8-0.2,0.8-0.4c0-0.2,0.2-0.4,0.5-0.4
	c0.7,0,5.7-2.5,5.9-2.9c0.1-0.2,0.4-0.3,0.7-0.3c0.3,0,0.6-0.2,0.6-0.4c0-0.2,0.2-0.4,0.5-0.4c0.3,0,0.9-0.4,1.3-0.8
	c0.4-0.4,0.8-0.7,0.9-0.6c0.2,0.2,3.3-2.2,5.9-4.7c0.9-0.8,1.8-1.5,2-1.5c0.2,0,0.7-0.4,1-0.9c0.3-0.5,1.3-1.6,2.1-2.4
	c0.8-0.8,1.5-1.6,1.5-1.8c0-0.1,0.2-0.5,0.5-0.8c0.3-0.3,0.9-1.1,1.5-1.7c0.5-0.7,1.1-1.1,1.3-1c0.2,0.1,0.3-0.1,0.3-0.5
	c0-0.4,0.4-1.2,0.8-1.7c0.4-0.5,0.8-1.2,0.8-1.5c0-0.3,0.2-0.5,0.4-0.5c0.2,0,0.5-0.3,0.6-0.7c0.2-0.8,1.5-3,1.9-3.3
	c0.1-0.1,0.5-0.8,0.7-1.6c0.8-2.2,1.4-3.6,1.8-3.6c0.2,0,0.3-0.3,0.3-0.8s0.2-0.9,0.4-1c0.2-0.1,0.3-0.4,0.2-0.6
	c-0.1-0.2,0-0.8,0.3-1.3c0.3-0.5,0.7-1.5,0.8-2.3c0.1-0.8,0.5-2.6,0.9-4C399.9,348.2,400.4,57.7,399.6,52.6z M25.2,180.4
	c0-65.6,0.1-119.2,0.3-119.2c0.2,0,0.4-1.5,0.4-3.3c0.1-1.8,0.3-3.4,0.5-3.4c0.2-0.1,0.4-0.7,0.4-1.5c0-0.8,0.2-1.4,0.4-1.4
	c0.2,0,0.4-0.4,0.4-1c0-0.5,0.2-1.1,0.4-1.2c0.2-0.1,0.4-0.7,0.4-1.2c0-0.6,0.2-0.9,0.4-0.8c0.2,0.1,0.4,0,0.4-0.4
	c0-1,0.9-2.6,1.3-2.4c0.2,0.1,0.3-0.2,0.3-0.6s0.2-0.8,0.4-0.8c0.2,0,0.4-0.3,0.4-0.7c0-0.4,0.5-1.3,1.2-2S34,39.1,34,39
	c0-0.5,4.5-4.6,4.8-4.4c0.2,0.1,0.4-0.1,0.5-0.5c0.3-1,3.5-3.3,4.6-3.3c0.5,0,0.8-0.2,0.6-0.4c-0.1-0.2-0.1-0.4,0.2-0.5
	c0.2,0,0.6-0.1,0.8-0.1c0.2,0,0.8-0.4,1.2-0.8c0.4-0.4,1.1-0.7,1.4-0.7s1.1-0.3,1.7-0.6c0.6-0.3,1.3-0.5,1.4-0.4
	c0.2,0.1,0.3,0,0.3-0.2c0-0.4,1.3-0.7,5.6-1.3c1.6-0.2,3.1-0.5,3.2-0.6c0.3-0.3,279.2,0.1,282.1,0.4c1.4,0.2,2.8,0.5,3,0.7
	c0.2,0.2,0.9,0.4,1.5,0.4c0.6,0,2,0.4,3,0.8c4,1.8,6.9,3.3,6.9,3.6c0,0.2,0.3,0.3,0.7,0.3c0.4,0,1.2,0.5,1.9,1.1
	c0.6,0.6,1.5,1.3,2,1.5c0.4,0.2,0.8,0.6,0.7,0.9s0.1,0.5,0.3,0.5c0.6,0,5.2,4.8,5.2,5.4c0,0.3,0.3,0.6,0.6,0.8
	c0.3,0.1,0.5,0.4,0.4,0.6c-0.1,0.2,0,0.5,0.2,0.6c0.2,0.1,0.4,0.6,0.4,1s0.2,0.7,0.4,0.7c0.2-0.1,0.5,0.2,0.6,0.6
	c0.1,0.4,0.4,1,0.8,1.4c0.3,0.4,0.6,1.1,0.6,1.6c0,0.5,0.2,0.9,0.4,0.9c0.2,0,0.4,0.5,0.4,1.2c0,0.7,0.2,1.2,0.4,1.2
	c0.2,0,0.4,0.7,0.4,1.6c0,0.9,0.2,1.6,0.4,1.7c0.2,0.1,0.4,1.4,0.5,3.1c0,1.6,0.2,3,0.4,3.1c0.2,0.1,0.3,53.8,0.3,119.4v119.2H200
	H25.2V180.4z M374.6,332.9c-0.3,9.2-0.6,12.7-1.1,12.7c-0.2,0-0.4,0.5-0.4,1c0,1.2-0.9,4.2-1.2,4.2c-0.1,0-0.5,0.7-0.8,1.6
	c-0.3,0.9-0.7,1.5-0.9,1.4c-0.2-0.1-0.3,0.1-0.3,0.4c0,0.6-1.3,3.5-2,4.4c-1.1,1.5-2.8,3.4-4.5,5.1c-1,1.1-1.9,2.1-1.9,2.3
	c0,0.2-0.5,0.5-1,0.6c-0.6,0.1-1,0.4-1,0.6c0,0.2-0.3,0.4-0.6,0.4c-0.3,0-0.6,0.1-0.6,0.3c0,0.2-0.7,0.6-1.6,1.1
	c-0.9,0.4-1.6,0.9-1.6,1.1c0,0.2-0.4,0.2-0.8,0.1c-0.6-0.2-0.8-0.1-0.6,0.2c0.2,0.3,0,0.4-0.3,0.4c-0.3,0-0.6,0.2-0.6,0.4
	c0,0.2-0.4,0.4-1,0.4c-0.5,0-1,0.2-1,0.4c0,0.2-0.3,0.4-0.7,0.4s-0.9,0.2-1.1,0.4c-0.2,0.2-1,0.4-1.8,0.5c-0.8,0.1-1.6,0.3-1.8,0.4
	c-0.2,0.2-1.7,0.3-3.3,0.4c-1.6,0-2.9,0.2-2.9,0.4c0,0.5-279.1,0.5-279.4,0c-0.1-0.2-1.2-0.4-2.5-0.4s-2.4-0.2-2.5-0.4
	c-0.1-0.2-0.8-0.3-1.6-0.4c-0.8-0.1-1.6-0.3-1.8-0.5c-0.2-0.2-0.8-0.4-1.3-0.4c-0.5,0-0.8-0.2-0.7-0.4c0.2-0.3-0.9-0.6-1.9-0.4
	c-0.2,0-0.2-0.1-0.1-0.3c0.2-0.3-1.1-0.9-2.4-1c-0.2,0-0.4-0.2-0.3-0.5c0-0.2-0.4-0.5-1-0.7c-0.6-0.1-1.5-0.5-1.9-0.9
	c-0.5-0.4-1.3-1-1.8-1.3c-3.4-2.3-9.9-10.3-9.3-11.4c0.1-0.2,0-0.2-0.2-0.1c-0.3,0.2-0.5,0-0.5-0.3c0-0.3-0.2-0.7-0.4-0.7
	c-0.2-0.1-0.4-0.5-0.5-1s-0.2-0.9-0.4-0.9c-0.2,0-0.3-0.3-0.3-0.7s-0.2-0.9-0.4-1.1c-0.2-0.2-0.4-0.9-0.5-1.5c0-0.6-0.2-1.1-0.4-1.1
	s-0.3-0.5-0.3-1.2c0-0.6-0.2-1.2-0.4-1.3c-0.2-0.1-0.4-1.5-0.5-3.2c-0.1-1.7-0.2-3.1-0.4-3.1c-0.2,0-0.3-3.2-0.3-7v-7H200h174.8
	L374.6,332.9z M301.4,343.2c0.3-0.3,0.6-0.9,0.7-1.2c0.1-0.3,0.5-0.8,0.9-1c0.4-0.2,0.8-0.7,0.7-0.9c-0.1-0.3,0.1-0.5,0.4-0.5
	c0.6,0,4-1.7,4.2-2.1c0.2-0.4,8.1-0.3,8.1,0.1c0,0.2,0.4,0.4,0.8,0.4c1.4,0,6.4,4.2,6.6,5.6c0,0.4,0.6,1.7,1,2.7
	c0.4,0.7,0.3,6.8-0.1,8.8c-0.1,0.4-0.7,1.4-1.5,2.1c-0.7,0.7-1.3,1.6-1.3,1.9c0,0.3-0.2,0.6-0.5,0.6c-0.3,0-0.9,0.4-1.4,0.8
	c-0.5,0.4-1.1,0.8-1.3,0.8s-0.3,0.2-0.2,0.4c0.1,0.2,0.1,0.4-0.1,0.4c-0.9-0.2-2.2,0.1-2,0.4c0.5,0.8-7.2,0.5-8.7-0.3
	c-0.8-0.4-1.6-0.8-1.9-0.8s-1.2-0.8-2.2-1.8c-1-1-2-1.8-2.2-1.8c-0.2,0-0.3-0.3-0.2-0.6c0.1-0.3,0.1-0.6-0.2-0.6
	c-0.2,0-0.4-0.4-0.4-0.8c0-0.4-0.2-0.9-0.5-1C298.8,354,299.7,345.2,301.4,343.2z"/>
</svg>
