<?xml version="1.0" encoding="utf-8"?>
<!-- Generator: Adobe Illustrator 24.0.1, SVG Export Plug-In . SVG Version: 6.00 Build 0)  -->
<svg version="1.1" id="Layer_1" xmlns="http://www.w3.org/2000/svg" xmlns:xlink="http://www.w3.org/1999/xlink" x="0px" y="0px"
	 viewBox="0 0 512 512" style="enable-background:new 0 0 512 512;" xml:space="preserve" fill="#F2F3F2">
<path class="st0" d="M509,133.5c-44.8-45.3-89.9-89.9-135.5-134c-4,0-8,0-12,0c-10.3,6.2-12.8,14.9-7.5,26
	c7.3,7.2,14.5,14.5,21.5,22c-18.3,19-37,37.7-56,56c-18.2-17.7-36.2-35.5-54-53.5c-18.4-6.3-26.9,0.2-25.5,19.5
	c6.9,8.9,14.6,17.3,23,25c0.7,0.7,0.7,1.3,0,2c-57,57-114,114-171,171c-8.7,13.3-8.7,26.7,0,40c4,3.8,7.8,7.8,11.5,12
	c-10.7,11.2-21.5,22.2-32.5,33c-2.8,3.7-5.2,7.7-7,12c-6.5,17.7-4.2,34,7,49c0.7,1,0.7,2,0,3c-24.4,23.9-48.3,48.3-71.5,73
	c0,4,0,8,0,12c2.3,4.3,5.7,7.7,10,10c4,0,8,0,12,0c24.7-23.2,49.1-47.1,73-71.5c1-0.7,2-0.7,3,0c3.2,3.1,6.8,5.4,11,7
	c17.9,6.4,34.6,4.1,50-7c10.8-11,21.8-21.8,33-32.5c4.2,3.7,8.2,7.5,12,11.5c13.3,8.7,26.7,8.7,40,0c57-57,114-114,171-171
	c0.7-0.7,1.3-0.7,2,0c7.7,8.4,16.1,16.1,25,23c19.3,1.4,25.8-7.1,19.5-25.5c-18-17.8-35.8-35.8-53.5-54c18.3-19,37-37.7,56-56
	c7.5,7,14.8,14.2,22,21.5c11.1,5.3,19.8,2.8,26-7.5c0-4,0-8,0-12C510.4,136.4,509.6,135.1,509,133.5z M136.5,415c-6,3.3-12,3.3-18,0
	c-7.5-7.5-15-15-22.5-22.5c-3.3-6-3.3-12,0-18c10.4-10.2,20.5-20.5,30.5-31c14.3,12.6,27.9,25.9,41,40
	C157.3,394.2,147,404.7,136.5,415z M351.5,263.5c-18.2-17.7-36.2-35.5-54-53.5c-18.4-6.3-26.9,0.2-25.5,19.5c0.7,1.3,1.3,2.7,2,4
	c18,17.8,35.8,35.8,53.5,54c-13,13.7-26.3,27-40,40c-18.2-17.7-36.2-35.5-54-53.5c-18.4-6.3-26.9,0.2-25.5,19.5c0.7,1.3,1.3,2.7,2,4
	c18,17.8,35.8,35.8,53.5,54c-13,13.7-26.3,27-40,40c-35-34.3-69.7-69-104-104c55.7-56,111.4-112,167-168
	c35.6,33.9,70.6,68.6,105,104C378.5,237.2,365.2,250.5,351.5,263.5z M383.5,167.5c-13.7-13-27-26.3-40-40c18.4-18.7,36.7-37.4,55-56
	c14.3,12.6,27.9,25.9,41,40C421.2,130.5,402.5,149.2,383.5,167.5z"/>
</svg>
