<?xml version="1.0" encoding="utf-8"?>
<!-- Generator: Adobe Illustrator 24.0.1, SVG Export Plug-In . SVG Version: 6.00 Build 0)  -->
<svg version="1.1" id="Layer_1" xmlns="http://www.w3.org/2000/svg" xmlns:xlink="http://www.w3.org/1999/xlink" x="0px" y="0px"
	 viewBox="0 0 415.8 342" style="enable-background:new 0 0 415.8 342;" xml:space="preserve">
<style type="text/css">
	.st0{fill:#F99DB8;}
</style>
<title>Asset 1logo-full</title>
<g id="b229cba2-099e-4f73-b3ab-37dda43e7919">
	<g id="a76c2062-7837-4e3e-831b-7113fc7d6d2c">
		<path class="st0" d="M205.3,128.5L205.3,128.5C205.3,128.5,205.3,128.5,205.3,128.5c-0.1,0-0.1,0-0.1,0v0
			c-55,1.6-106.7,77.6-124.3,129.7c-26.2,77.6,25,101.6,82.6,71c14.7-7.8,25.2-12.4,40.8-12.2v0c0.3,0,0.6,0,0.9,0
			c0.3,0,0.6,0,0.9,0v0c15.6-0.2,26.2,4.4,40.8,12.2c57.6,30.6,108.8,6.7,82.6-71C312,206.1,260.3,130.1,205.3,128.5z"/>
		
			<ellipse transform="matrix(0.9884 -0.1521 0.1521 0.9884 -23.7291 8.2526)" class="st0" cx="42.1" cy="159.3" rx="41.6" ry="58.7"/>
		
			<ellipse transform="matrix(0.1521 -0.9884 0.9884 0.1521 159.4832 504.4399)" class="st0" cx="373.7" cy="159.3" rx="58.7" ry="41.6"/>
		<ellipse class="st0" cx="142.2" cy="58.7" rx="41.6" ry="58.7"/>
		<ellipse class="st0" cx="274.6" cy="58.7" rx="41.6" ry="58.7"/>
	</g>
</g>
</svg>
