<?xml version="1.0" encoding="UTF-8"?>
<!DOCTYPE svg PUBLIC "-//W3C//DTD SVG 1.1//EN" "http://www.w3.org/Graphics/SVG/1.1/DTD/svg11.dtd">
<svg xmlns="http://www.w3.org/2000/svg" version="1.1" width="512px" height="512px" style="shape-rendering:geometricPrecision; text-rendering:geometricPrecision; image-rendering:optimizeQuality; fill-rule:evenodd; clip-rule:evenodd" xmlns:xlink="http://www.w3.org/1999/xlink">
<g><path style="opacity:0.98" fill="#f2f3f2" d="M 150.5,-0.5 C 223.167,-0.5 295.833,-0.5 368.5,-0.5C 370.568,0.374833 372.568,1.5415 374.5,3C 409.333,35.8333 444.167,68.6667 479,101.5C 480.439,103.275 481.439,105.275 482,107.5C 482.993,212.556 482.66,317.556 481,422.5C 479.073,427.428 475.573,430.594 470.5,432C 437.835,432.5 405.168,432.667 372.5,432.5C 372.667,454.503 372.5,476.503 372,498.5C 370.411,504.917 366.577,509.251 360.5,511.5C 253.833,511.5 147.167,511.5 40.5,511.5C 34.4503,509.275 30.6169,504.942 29,498.5C 28.3333,362.833 28.3333,227.167 29,91.5C 30.4269,85.0747 34.2602,80.9081 40.5,79C 73.165,78.5 105.832,78.3334 138.5,78.5C 138.333,56.4975 138.5,34.4975 139,12.5C 140.589,6.0828 144.423,1.74947 150.5,-0.5 Z M 174.5,34.5 C 231.167,34.5 287.833,34.5 344.5,34.5C 344.333,60.8354 344.5,87.1688 345,113.5C 346.027,122.409 350.86,127.909 359.5,130C 388.831,130.5 418.165,130.667 447.5,130.5C 447.5,219.5 447.5,308.5 447.5,397.5C 422.5,397.5 397.5,397.5 372.5,397.5C 372.667,327.499 372.5,257.499 372,187.5C 371.275,185.051 370.275,182.717 369,180.5C 333.801,146.967 298.301,113.8 262.5,81C 261.167,80.3333 259.833,79.6667 258.5,79C 230.502,78.5 202.502,78.3334 174.5,78.5C 174.5,63.8333 174.5,49.1667 174.5,34.5 Z M 380.5,58.5 C 393.297,70.1282 405.964,81.9615 418.5,94C 405.838,94.4999 393.171,94.6666 380.5,94.5C 380.5,82.5 380.5,70.5 380.5,58.5 Z M 63.5,113.5 C 120.5,113.5 177.5,113.5 234.5,113.5C 234.333,140.169 234.5,166.835 235,193.5C 236.055,202.221 240.889,207.388 249.5,209C 278.498,209.5 307.498,209.667 336.5,209.5C 336.5,298.5 336.5,387.5 336.5,476.5C 245.5,476.5 154.5,476.5 63.5,476.5C 63.5,355.5 63.5,234.5 63.5,113.5 Z M 270.5,137.5 C 283.297,149.128 295.964,160.962 308.5,173C 295.838,173.5 283.171,173.667 270.5,173.5C 270.5,161.5 270.5,149.5 270.5,137.5 Z"/></g>
<g><path style="opacity:0.977" fill="#f2f3f2" d="M 113.5,246.5 C 152.168,246.333 190.835,246.5 229.5,247C 239.996,250.813 244.162,258.313 242,269.5C 240.141,275.36 236.307,279.193 230.5,281C 191.167,281.667 151.833,281.667 112.5,281C 101.029,275.261 97.8627,266.427 103,254.5C 105.855,250.789 109.355,248.123 113.5,246.5 Z"/></g>
<g><path style="opacity:0.98" fill="#f2f3f2" d="M 113.5,314.5 C 171.501,314.333 229.501,314.5 287.5,315C 298.464,319.764 302.298,327.931 299,339.5C 296.894,344.147 293.394,347.314 288.5,349C 229.833,349.667 171.167,349.667 112.5,349C 101.042,343.3 97.875,334.467 103,322.5C 105.855,318.789 109.355,316.123 113.5,314.5 Z"/></g>
<g><path style="opacity:0.957" fill="#f2f3f2" d="M 113.5,382.5 C 171.501,382.333 229.501,382.5 287.5,383C 298.464,387.764 302.298,395.931 299,407.5C 295.764,413.719 290.597,417.219 283.5,418C 228.167,418.667 172.833,418.667 117.5,418C 108.787,417.397 103.287,412.897 101,404.5C 99.2341,393.69 103.401,386.357 113.5,382.5 Z"/></g>
</svg>
