<svg xmlns="http://www.w3.org/2000/svg" width="1697.0148" height="396" viewBox="0 0 1697.0148 396"><defs><style>.f1c2765d-46eb-4d3f-b9f6-6418e4f101be{fill:#9bf8dd;}.e6e7dbe3-210d-4b4e-b263-1701083bda3b{fill:#fafafa;}</style></defs><title>Asset 3logo-full</title><g id="a241e54b-2133-4ccb-963a-c3d202ea0fde" data-name="Layer 2"><g id="bb41a489-0d8a-4a43-9de6-bab227fb92e2" data-name="Full Logo"><path class="f1c2765d-46eb-4d3f-b9f6-6418e4f101be" d="M198.98,306.3467v.02c-.241-.0081-.47-.0048-.7076-.01-.238.0054-.4667.0021-.7077.01v-.02c-12.48-.1395-20.8838,3.5208-32.571,9.7256a87.1109,87.1109,0,0,1-28.0753,9.66v37.4511A32.8163,32.8163,0,0,0,169.7344,396h56.5312a32.8162,32.8162,0,0,0,32.8162-32.8162V325.6526a87.6316,87.6316,0,0,1-27.5314-9.58C219.8634,309.8675,211.4593,306.2072,198.98,306.3467Z"/><path class="f1c2765d-46eb-4d3f-b9f6-6418e4f101be" d="M363.1838,139.7564H351.7963c10.8005,8.7922,16.6088,26.6006,13.6423,45.8826-3.9344,25.5732-21.8083,44.0451-39.9226,41.2583s-29.61-25.7771-25.6751-51.35c2.4161-15.7048,10.093-28.721,19.8506-35.7907H271.6c-5.1882,4.7441-11.3688,7.5094-18.0105,7.5094-18.3275,0-33.1848-20.975-33.1848-46.849s14.8573-46.849,33.1848-46.849a23.9289,23.9289,0,0,1,5.4922.65V32.8163A32.8162,32.8162,0,0,0,226.2656,0H169.7344a32.8163,32.8163,0,0,0-32.8163,32.8163V56.2528a24.6271,24.6271,0,0,1,11.08-2.685c18.3274,0,33.1847,20.975,33.1847,46.849s-14.8573,46.849-33.1847,46.849c-6.6417,0-12.8223-2.7653-18.0107-7.5094H81.0937c9.7575,7.07,17.4345,20.0859,19.8506,35.7907,3.9343,25.5731-7.5608,48.5634-25.6751,51.35S39.2809,211.2122,35.3466,185.639c-2.9665-19.282,2.8417-37.09,13.6423-45.8826H32.8162A32.8163,32.8163,0,0,0,0,172.5727v56.5312A32.8163,32.8163,0,0,0,32.8162,261.92H98.3128c.2573-.8127.52-1.6291.7992-2.4571,14.0019-41.5229,55.2326-102.1611,99.1155-103.4457v-.0044l.0445.0022.0445-.0022v.0044c43.8828,1.2846,85.1135,61.9228,99.1153,103.4457.2793.828.5419,1.6444.7992,2.4571h64.9528A32.8163,32.8163,0,0,0,396,229.1039V172.5727A32.8163,32.8163,0,0,0,363.1838,139.7564Z"/><path class="e6e7dbe3-210d-4b4e-b263-1701083bda3b" d="M198.3165,156.0174v-.0044l-.0445.0022-.0445-.0022v.0044C154.3446,157.302,113.1139,217.94,99.112,259.4631c-.2792.828-.5419,1.6444-.7992,2.4571-14.8889,47.0307,6.725,68.3928,38.6053,63.8125a87.1109,87.1109,0,0,0,28.0753-9.66c11.6872-6.2048,20.0912-9.8651,32.571-9.7256v.02c.241-.0081.47-.0048.7077-.01.2379.0054.4666.0021.7076.01v-.02c12.48-.1395,20.8839,3.5208,32.5709,9.7256a87.6316,87.6316,0,0,0,27.5314,9.58c32.1778,4.9026,54.1227-16.4346,39.1492-63.7324-.2573-.8127-.52-1.6291-.7992-2.4571C283.43,217.94,242.1993,157.302,198.3165,156.0174Z"/><path class="e6e7dbe3-210d-4b4e-b263-1701083bda3b" d="M35.3466,185.639c3.9343,25.5732,21.8083,44.0451,39.9226,41.2583s29.6094-25.7771,25.6751-51.35c-2.4161-15.7048-10.0931-28.721-19.8506-35.7907-6.1314-4.4423-13.0819-6.543-20.072-5.4676a24.9806,24.9806,0,0,0-12.0328,5.4676C38.1883,148.5486,32.38,166.357,35.3466,185.639Z"/><path class="e6e7dbe3-210d-4b4e-b263-1701083bda3b" d="M299.8409,175.5471c-3.9344,25.5731,7.5608,48.5634,25.6751,51.35s35.9882-15.6851,39.9226-41.2583c2.9665-19.282-2.8418-37.09-13.6423-45.8826a24.981,24.981,0,0,0-12.0328-5.4676c-6.99-1.0754-13.9407,1.0253-20.072,5.4676C309.9339,146.8261,302.257,159.8423,299.8409,175.5471Z"/><path class="e6e7dbe3-210d-4b4e-b263-1701083bda3b" d="M147.9979,147.2658c18.3274,0,33.1847-20.975,33.1847-46.849s-14.8573-46.849-33.1847-46.849a24.6271,24.6271,0,0,0-11.08,2.685c-12.8779,6.44-22.105,23.7767-22.105,44.164,0,16.4975,6.0456,30.9926,15.1741,39.34C135.1756,144.5005,141.3562,147.2658,147.9979,147.2658Z"/><path class="e6e7dbe3-210d-4b4e-b263-1701083bda3b" d="M220.4048,100.4168c0,25.874,14.8573,46.849,33.1848,46.849,6.6417,0,12.8223-2.7653,18.0105-7.5094,9.1287-8.347,15.1742-22.8421,15.1742-39.34,0-23.2313-11.98-42.5022-27.6925-46.1986a23.9289,23.9289,0,0,0-5.4922-.65C235.2621,53.5678,220.4048,74.5428,220.4048,100.4168Z"/><path class="e6e7dbe3-210d-4b4e-b263-1701083bda3b" d="M616.8057,104.7012C618.57-12.952,474.7441,7.4973,474.7441,7.4973v.0006a19.6569,19.6569,0,0,0-17.6221,19.55V276.7032a19.6551,19.6551,0,0,0,19.6551,19.6551h0a19.6551,19.6551,0,0,0,19.6551-19.6551V223.6248C506.1777,221.6907,615.4072,197.9378,616.8057,104.7012Zm-40.3089,4.3526c-3.4572,52.5386-62.1775,67.5329-80.0644,70.8916V42.1342C521.6747,41.6574,580.5723,47.1211,576.4968,109.0538Z"/><path class="e6e7dbe3-210d-4b4e-b263-1701083bda3b" d="M735.7469,114.9483h0a19.697,19.697,0,0,0-18.6081,13.6905c-15.8893-17.5281-91.39-27.32-111.0389,68.0291-2.4588,11.9316-14.7666,103.5565,53.647,99.6876,27.96-1.5812,45.442-26.5944,56.3449-55.62V276.22a19.9,19.9,0,0,0,19.6551,20.1353h0A19.9,19.9,0,0,0,755.402,276.22V135.0837A19.9,19.9,0,0,0,735.7469,114.9483ZM656.57,255.6028c-9.9526-2.6552-11.1009-32.6969-9.8075-43.0261,8.0427-64.2336,50.7627-62.65,51.1016-44.4723C698.3835,195.9448,668.7677,258.8568,656.57,255.6028Z"/><path class="e6e7dbe3-210d-4b4e-b263-1701083bda3b" d="M969.52,137.5668a19.6608,19.6608,0,0,0-21.02-19.6c-10.39.69-18.8642,9.6758-18.29,20.07.75,13.58.8894,42.5084.8894,56.1288,0,37.4037-10.2388,59.1194-15.0315,58.9443-12.9685-.4737-22.145-47.54-22.145-47.54-1.5294-11.2871-8.8-19.6551-19.6551-19.6551h0a19.5588,19.5588,0,0,0-8.0106,1.718c-6.8075,2.8326-11.2637,9.6979-12.4221,18.2462,0,0-9.1764,47.0658-22.1449,47.54-4.7927.175-15.0315-21.5407-15.0315-58.9443,0-13.62.1392-42.5488.8894-56.1288.5742-10.3943-7.9-19.38-18.29-20.07a19.6608,19.6608,0,0,0-21.02,19.6S758.3061,292.5924,831.0119,297.063c22.8094,1.4024,37.64-16.9757,42.5063-24.1037l.4064-1.3888.3159,1.08c4.8659,7.1279,19.6969,25.5061,42.5063,24.1036C989.4527,292.2833,969.52,137.5668,969.52,137.5668Z"/><path class="f1c2765d-46eb-4d3f-b9f6-6418e4f101be" d="M1155.188,113.8381h0a19.6747,19.6747,0,0,0-19.6552,19.6943V278.5867a19.6748,19.6748,0,0,0,19.6552,19.6944h0a19.6748,19.6748,0,0,0,19.6552-19.6944V133.5324A19.6747,19.6747,0,0,0,1155.188,113.8381Z"/><circle class="f1c2765d-46eb-4d3f-b9f6-6418e4f101be" cx="1155.188" cy="81.6363" r="18.7059"/><path class="f1c2765d-46eb-4d3f-b9f6-6418e4f101be" d="M1359.0112,113.8381h0a19.6747,19.6747,0,0,0-19.6551,19.6943V278.5867a19.6747,19.6747,0,0,0,19.6551,19.6944h0a19.6747,19.6747,0,0,0,19.6551-19.6944V133.5324A19.6747,19.6747,0,0,0,1359.0112,113.8381Z"/><circle class="f1c2765d-46eb-4d3f-b9f6-6418e4f101be" cx="1359.0111" cy="81.6363" r="18.7059"/><path class="f1c2765d-46eb-4d3f-b9f6-6418e4f101be" d="M1319.7927,209.4449a19.6551,19.6551,0,0,0-19.6551-19.6551h0c-10.8552,0-16.9789,8.8147-16.9789,19.67,0,0,2.2376,36.3852-16.3776,49.4393a10.0761,10.0761,0,0,1-13.5038-1.82c-10.8556-13.1872-10.8163-46.2077-10.8163-46.2077V175.7032h40.0215a19.6552,19.6552,0,0,0,19.6552-19.6552h0a19.6552,19.6552,0,0,0-19.6552-19.6552h-40.0215v-3.9a19.6552,19.6552,0,0,0-19.6552-19.6551h0a19.6551,19.6551,0,0,0-19.6551,19.6551s-3.9919,64.9666,0,97.0842c2.7388,22.0356,12.9493,69.4084,55.4219,69.4084l-.002.0381c.3071,0,.6031-.0163.9072-.0209.3652.0058.7228.0209,1.0928.0209v-.046C1319.7835,297.04,1319.7927,209.4449,1319.7927,209.4449Z"/><path class="f1c2765d-46eb-4d3f-b9f6-6418e4f101be" d="M1691.2745,232.2267h0a19.38,19.38,0,0,0-27.7967,0s-11.9936,16.7313-25.8486,21.55c-51.7647,18.0051-48.0711-35.2786-48.0711-35.2786s95.211,8.7894,96.5417-55.8269c1.0588-51.4161-57.5294-59.7768-92.2353-32.7692-66.4909,51.7423-51.4118,167.0869,23.7647,167.0869,58.5881,0,78.2178-43.7571,78.21-43.7579A20.3315,20.3315,0,0,0,1691.2745,232.2267Zm-45.5464-76.1155c15.32,16.9328-52.1264,31.9776-52.0989,27.9344C1593.6668,178.4817,1629.5835,138.2669,1645.7281,156.1112Z"/><path class="f1c2765d-46eb-4d3f-b9f6-6418e4f101be" d="M1531.8305,115.1273h0a19.667,19.667,0,0,0-22.7016,16.1381l-3.3785,19.7694s-21.7139,106.9933-33.08,108.2222c-11.3663-1.2289-33.08-108.2222-33.08-108.2222l-3.3785-19.7694a19.6672,19.6672,0,0,0-22.7017-16.1381h0a19.7641,19.7641,0,0,0-16.04,22.84l3.3787,19.7694s23.353,139.81,72.7649,139.81,70.879-139.81,70.879-139.81l3.3785-19.7694A19.7637,19.7637,0,0,0,1531.8305,115.1273Z"/><path class="f1c2765d-46eb-4d3f-b9f6-6418e4f101be" d="M1081.8716,156.76c9.6473,4.9766,21.4738-1.6249,25.1493-11.8389h0c3.6756-10.214-1.7489-21.1455-11.8389-25.1493-17.3709-6.893-76.4352-16.9594-85.314,39.21-7.81,49.4076,56.4071,56.33,62.0553,76.3007,8.1275,28.7366-30.1177,42.5882-44.5886,15.9129-2.3768-4.3812-3.0737-14.6422-3.7747-19.5771-1.5266-10.7474-12.362-17.6336-23.0209-15.5785h0a19.7771,19.7771,0,0,0-15.5785,23.0209c.8591,4.91,2.3285,14.8071,3.7746,19.5771,5.1426,16.9623,22.7175,39.3853,58.9528,39.3853,42.63,0,62.1265-25.5641,62.1176-60.3876-.0081-32.2388-25.426-43.74-39.0588-52.9412-3.5991-2.4293-27.2211-12.659-20.7059-26.5883C1056.8645,143.5186,1075.1587,153.2976,1081.8716,156.76Z"/><path class="e6e7dbe3-210d-4b4e-b263-1701083bda3b" d="M480.586,395.1581a28.9873,28.9873,0,0,1-10.6084-1.9082,24.8288,24.8288,0,0,1-8.4937-5.4365,25.2331,25.2331,0,0,1-5.604-8.2793,28.1332,28.1332,0,0,1,0-20.88,25,25,0,0,1,14.168-13.7168,30.7192,30.7192,0,0,1,22.2388.36,22.5916,22.5916,0,0,1,8.7407,6.66L493.626,358.87a16.8239,16.8239,0,0,0-5.6035-4.4639,15.4528,15.4528,0,0,0-6.8023-1.5127,16.5264,16.5264,0,0,0-6.3437,1.1885,14.79,14.79,0,0,0-5.0049,3.3477,15.1667,15.1667,0,0,0-3.2773,5.1123,19.0346,19.0346,0,0,0,0,13.1035,15.149,15.149,0,0,0,3.2773,5.1123,14.7772,14.7772,0,0,0,5.0049,3.3477,16.5282,16.5282,0,0,0,6.3437,1.1884,15.1613,15.1613,0,0,0,6.8023-1.5478,17.2466,17.2466,0,0,0,5.6035-4.5l7.4014,6.9121a22.9051,22.9051,0,0,1-8.7407,6.6953A28.6627,28.6627,0,0,1,480.586,395.1581Z"/><path class="e6e7dbe3-210d-4b4e-b263-1701083bda3b" d="M529.7993,394.2938v-50.4h11.4893V384.79h24.6v9.5039Z"/><path class="e6e7dbe3-210d-4b4e-b263-1701083bda3b" d="M595.31,394.2938v-50.4h11.4892v50.4Z"/><path class="e6e7dbe3-210d-4b4e-b263-1701083bda3b" d="M639.8433,394.2938v-50.4h9.4453L678.4,380.1815h-4.5815V343.8934h11.2778v50.4h-9.4453L646.54,358.0057h4.5815v36.2881Z"/><path class="e6e7dbe3-210d-4b4e-b263-1701083bda3b" d="M717.5909,339.79l9.5161-10.3681h11.7714L726.1905,339.79Zm.705,54.5039v-50.4h11.4893v50.4Z"/><path class="e6e7dbe3-210d-4b4e-b263-1701083bda3b" d="M787.3374,395.1581A28.988,28.988,0,0,1,776.729,393.25a24.8284,24.8284,0,0,1-8.4936-5.4365,25.2315,25.2315,0,0,1-5.604-8.2793,28.1332,28.1332,0,0,1,0-20.88,24.9991,24.9991,0,0,1,14.1679-13.7168,30.7192,30.7192,0,0,1,22.2388.36,22.59,22.59,0,0,1,8.7407,6.66l-7.4013,6.9121a16.8239,16.8239,0,0,0-5.6035-4.4639,15.4528,15.4528,0,0,0-6.8023-1.5127,16.526,16.526,0,0,0-6.3437,1.1885,14.7893,14.7893,0,0,0-5.0049,3.3477,15.1669,15.1669,0,0,0-3.2774,5.1123,19.0346,19.0346,0,0,0,0,13.1035,15.1493,15.1493,0,0,0,3.2774,5.1123,14.7763,14.7763,0,0,0,5.0049,3.3477,16.5279,16.5279,0,0,0,6.3437,1.1884,15.1613,15.1613,0,0,0,6.8023-1.5478,17.2466,17.2466,0,0,0,5.6035-4.5l7.4013,6.9121a22.9036,22.9036,0,0,1-8.7407,6.6953A28.6621,28.6621,0,0,1,787.3374,395.1581Z"/><path class="e6e7dbe3-210d-4b4e-b263-1701083bda3b" d="M833.626,394.2938l21.9214-50.4h11.2783l22.1328,50.4H876.9761L858.86,349.7977h4.5815l-18.1152,44.4961Zm11.0664-10.8,2.89-8.8564h25.5166l2.96,8.8564Z"/><path class="e6e7dbe3-210d-4b4e-b263-1701083bda3b" d="M979.605,394.2938l-21.3584-50.4h12.4063l18.6084,44.6407h-7.26l18.8906-44.6407h11.3487l-21.3584,50.4Z"/><path class="e6e7dbe3-210d-4b4e-b263-1701083bda3b" d="M1051.6353,384.9335h26.8555v9.36h-38.2041v-50.4h37.288v9.36h-25.9394Zm-.8457-20.8076h23.7539v9.1435H1050.79Z"/><path class="e6e7dbe3-210d-4b4e-b263-1701083bda3b" d="M1122.8755,394.2938V353.3973h-15.789v-9.5039h42.997v9.5039h-15.789v40.8965Z"/><path class="e6e7dbe3-210d-4b4e-b263-1701083bda3b" d="M1190.6988,384.9335h26.8554v9.36H1179.35v-50.4h37.2881v9.36h-25.9394Zm-.8457-20.8076h23.7539v9.1435h-23.7539Z"/><path class="e6e7dbe3-210d-4b4e-b263-1701083bda3b" d="M1247.3072,394.2938v-50.4h21.3574a27.24,27.24,0,0,1,11.4189,2.1963,16.8275,16.8275,0,0,1,7.4014,6.3,19.4828,19.4828,0,0,1,0,19.4766,16.4448,16.4448,0,0,1-7.4014,6.1914,28.0232,28.0232,0,0,1-11.4189,2.124h-15.084l5.2158-5.04v19.1523Zm11.4892-17.8564-5.2158-5.544h14.45q5.2149,0,7.8945-2.3037a8.0851,8.0851,0,0,0,2.6787-6.4795,7.9805,7.9805,0,0,0-2.6787-6.4443q-2.6807-2.2676-7.8945-2.2686h-14.45l5.2158-5.5439Zm19.9483,17.8564-12.4063-18.2881h12.2656l12.4053,18.2881Z"/><path class="e6e7dbe3-210d-4b4e-b263-1701083bda3b" d="M1321.43,394.2938v-50.4H1332.92v50.4Z"/><path class="e6e7dbe3-210d-4b4e-b263-1701083bda3b" d="M1365.9634,394.2938v-50.4h9.4453l29.1114,36.2881h-4.5821V343.8934h11.2783v50.4h-9.4453L1372.66,358.0057h4.582v36.2881Z"/><path class="e6e7dbe3-210d-4b4e-b263-1701083bda3b" d="M1439.3765,394.2938l21.9219-50.4h11.2783l22.1328,50.4h-11.9824l-18.1153-44.4961h4.5811l-18.1152,44.4961Zm11.0674-10.8,2.89-8.8564H1478.85l2.96,8.8564Zm10.1494-43.7041,9.5166-10.3681h11.7715L1469.1929,339.79Z"/><path class="e6e7dbe3-210d-4b4e-b263-1701083bda3b" d="M1522.7984,394.2938v-50.4h21.3574a27.24,27.24,0,0,1,11.4189,2.1963,16.8269,16.8269,0,0,1,7.4014,6.3,19.4828,19.4828,0,0,1,0,19.4766,16.4443,16.4443,0,0,1-7.4014,6.1914,28.0232,28.0232,0,0,1-11.4189,2.124h-15.084l5.2158-5.04v19.1523Zm11.4892-17.8564-5.2158-5.544h14.45q5.2149,0,7.8945-2.3037a8.0851,8.0851,0,0,0,2.6787-6.4795,7.9805,7.9805,0,0,0-2.6787-6.4443q-2.6807-2.2676-7.8945-2.2686h-14.45l5.2158-5.5439Zm19.9483,17.8564L1541.83,376.0057h12.2656l12.4053,18.2881Z"/><path class="e6e7dbe3-210d-4b4e-b263-1701083bda3b" d="M1596.9214,394.2938v-50.4h11.4893v50.4Z"/><path class="e6e7dbe3-210d-4b4e-b263-1701083bda3b" d="M1636.5347,394.2938l21.9219-50.4h11.2783l22.1328,50.4h-11.9824L1661.77,349.7977h4.581l-18.1152,44.4961Zm11.0674-10.8,2.89-8.8564h25.5166l2.96,8.8564Z"/></g></g></svg>