<?xml version="1.0" encoding="utf-8"?>
<!-- Generator: Adobe Illustrator 24.0.1, SVG Export Plug-In . SVG Version: 6.00 Build 0)  -->
<svg version="1.1" id="Layer_1" xmlns="http://www.w3.org/2000/svg" xmlns:xlink="http://www.w3.org/1999/xlink" x="0px" y="0px"
	 viewBox="0 0 1920 1080" style="enable-background:new 0 0 1920 1080;" xml:space="preserve">
<style type="text/css">
	.st0{fill:none;}
	.st1{clip-path:url(#SVGID_2_);}
	.st2{fill:none;stroke:#F99DB8;stroke-width:4;}
	.st3{opacity:0.4;fill:url(#SVGID_3_);}
</style>
<pattern  width="348.7" height="348.7" patternUnits="userSpaceOnUse" id="paws_6" viewBox="37.3 -398.5 348.7 348.7" style="overflow:visible;">
	<g>
		<rect x="37.3" y="-398.5" class="st0" width="348.7" height="348.7"/>
		<g>
			<defs>
				<rect id="SVGID_1_" x="37.3" y="-398.5" width="348.7" height="348.7"/>
			</defs>
			<clipPath id="SVGID_2_">
				<use xlink:href="#SVGID_1_"  style="overflow:visible;"/>
			</clipPath>
			<g class="st1">
				<g>
					<g>
						<path class="st2" d="M126.9-370.9c-4.1-7.7-14.3-18.2-22.9-17l0,0c0,0,0,0,0,0c0,0,0,0,0,0l0,0c-8.6,1.7-14.6,15-16,23.6
							c0,0.2-0.1,0.3-0.1,0.5c-1.3,9.8,3.7,13.2,9.8,11.2c1.6-0.5,3.4-1.5,5.1-2.8c2.1-1.6,3.6-2.6,6.1-3l0,0c0,0,0.1,0,0.1,0
							c0,0,0.1,0,0.1,0l0,0c2.4-0.4,4.2,0,6.7,0.8c2.1,0.7,4.1,1,5.8,1c6.4-0.2,9.9-5.1,5.4-13.8C127.1-370.6,127-370.8,126.9-370.9
							z"/>
						<path class="st2" d="M132.7-396.1c-0.8-0.4-1.7-0.7-2.5-0.7c-1.4,0-2.7,0.7-3.8,1.7c-1.7,1.7-2.7,4.5-2.7,7.7
							c0.1,5.2,3.1,9.3,6.8,9.2c3.6-0.1,6.5-4.3,6.5-9.4C136.9-391.5,135.1-394.8,132.7-396.1z"/>
						<path class="st2" d="M79.6-387c-1.4-0.7-2.8-0.8-4.1-0.4c-0.8,0.3-1.6,0.8-2.2,1.5c-1.8,2.1-2.4,5.8-1.1,9.5
							c1.6,4.9,5.8,7.9,9.2,6.8c3.5-1.2,4.9-6.1,3.3-10.9C83.7-383.7,81.7-386,79.6-387z"/>
						<path class="st2" d="M113.5-391.3c1.3-0.2,2.4-1,3.3-2.1c1.5-1.9,2.2-5,1.7-8.2c-0.7-4-3.1-7.1-5.8-7.9
							c-0.7-0.2-1.5-0.3-2.3-0.2c-3.6,0.6-5.8,5.2-4.9,10.3C106.3-394.3,109.9-390.7,113.5-391.3z"/>
						<path class="st2" d="M89-388.6c1.2,0.8,2.5,1.1,3.8,0.9c3.6-0.6,5.8-5.2,4.9-10.3c-0.9-5.1-4.5-8.7-8.1-8.1
							c-0.4,0.1-0.7,0.2-1.1,0.3c-3,1.3-4.7,5.4-3.9,10C85.3-392.6,86.9-390,89-388.6z"/>
					</g>
					<g>
						<path class="st2" d="M126.9-20.9c-4.1-7.7-14.3-18.2-22.9-17l0,0c0,0,0,0,0,0c0,0,0,0,0,0l0,0c-8.6,1.7-14.6,15-16,23.6
							c0,0.2-0.1,0.3-0.1,0.5C86.5-4,91.6-0.5,97.7-2.6c1.6-0.5,3.4-1.5,5.1-2.8c2.1-1.6,3.6-2.6,6.1-3l0,0c0,0,0.1,0,0.1,0
							c0,0,0.1,0,0.1,0l0,0c2.4-0.4,4.2,0,6.7,0.8c2.1,0.7,4.1,1,5.8,1c6.4-0.2,9.9-5.1,5.4-13.8C127.1-20.6,127-20.8,126.9-20.9z"
							/>
						<path class="st2" d="M132.7-46.1c-0.8-0.4-1.7-0.7-2.5-0.7c-1.4,0-2.7,0.7-3.8,1.7c-1.7,1.7-2.7,4.5-2.7,7.7
							c0.1,5.2,3.1,9.3,6.8,9.2c3.6-0.1,6.5-4.3,6.5-9.4C136.9-41.5,135.1-44.8,132.7-46.1z"/>
						<path class="st2" d="M79.6-37c-1.4-0.7-2.8-0.8-4.1-0.4c-0.8,0.3-1.6,0.8-2.2,1.5c-1.8,2.1-2.4,5.8-1.1,9.5
							c1.6,4.9,5.8,7.9,9.2,6.8c3.5-1.2,4.9-6.1,3.3-10.9C83.7-33.7,81.7-36,79.6-37z"/>
						<path class="st2" d="M113.5-41.3c1.3-0.2,2.4-1,3.3-2.1c1.5-1.9,2.2-5,1.7-8.2c-0.7-4-3.1-7.1-5.8-7.9
							c-0.7-0.2-1.5-0.3-2.3-0.2c-3.6,0.6-5.8,5.2-4.9,10.3C106.3-44.3,109.9-40.7,113.5-41.3z"/>
						<path class="st2" d="M89-38.6c1.2,0.8,2.5,1.1,3.8,0.9c3.6-0.6,5.8-5.2,4.9-10.3c-0.9-5.1-4.5-8.7-8.1-8.1
							c-0.4,0.1-0.7,0.2-1.1,0.3c-3,1.3-4.7,5.4-3.9,10C85.3-42.6,86.9-40,89-38.6z"/>
					</g>
				</g>
				<g>
					<path class="st2" d="M305-302.1c-3.1-8.2-11.8-19.9-20.5-19.8l0,0c0,0,0,0,0,0c0,0,0,0,0,0l0,0c-8.7,0.6-16.5,13-18.9,21.4
						c0,0.2-0.1,0.3-0.1,0.5c-2.6,9.5,1.9,13.6,8.3,12.4c1.7-0.3,3.5-1,5.4-2.1c2.3-1.3,3.9-2.1,6.4-2.2l0,0c0,0,0.1,0,0.1,0
						c0,0,0.1,0,0.1,0l0,0c2.5-0.1,4.2,0.5,6.6,1.7c2,1,3.9,1.5,5.7,1.7c6.4,0.7,10.5-3.8,7.2-13C305.2-301.8,305.1-302,305-302.1z"
						/>
					<path class="st2" d="M314.1-326.4c-0.7-0.5-1.6-0.9-2.4-1c-1.4-0.2-2.8,0.3-4,1.2c-1.9,1.5-3.3,4.1-3.7,7.3
						c-0.6,5.1,1.9,9.6,5.5,10c3.6,0.4,7-3.4,7.6-8.5C317.6-321.2,316.3-324.7,314.1-326.4z"/>
					<path class="st2" d="M260.2-324.3c-1.3-0.8-2.7-1.2-4-0.9c-0.9,0.2-1.7,0.6-2.4,1.2c-2.1,1.8-3.1,5.4-2.4,9.2
						c1,5.1,4.7,8.6,8.3,7.9c3.6-0.7,5.7-5.4,4.7-10.4C263.8-320.4,262.2-322.9,260.2-324.3z"/>
					<path class="st2" d="M294.5-324.1c1.3-0.1,2.5-0.6,3.5-1.6c1.8-1.7,2.8-4.7,2.7-7.9c-0.2-4.1-2.1-7.4-4.7-8.6
						c-0.7-0.3-1.5-0.5-2.2-0.4c-3.6,0.1-6.4,4.4-6.2,9.6C287.7-328,290.8-324,294.5-324.1z"/>
					<path class="st2" d="M269.8-324.6c1.1,0.9,2.3,1.4,3.6,1.4c3.6-0.1,6.4-4.4,6.2-9.6c-0.2-5.2-3.3-9.2-7-9.1
						c-0.4,0-0.7,0.1-1.1,0.2c-3.1,0.9-5.3,4.8-5.2,9.4C266.6-329.1,267.9-326.2,269.8-324.6z"/>
				</g>
				<g>
					<path class="st2" d="M55.8-162.1c-3.1-8.2-11.8-19.9-20.5-19.8l0,0c0,0,0,0,0,0c0,0,0,0,0,0l0,0c-8.7,0.6-16.5,13-18.9,21.4
						c0,0.2-0.1,0.3-0.1,0.5c-2.6,9.5,1.9,13.6,8.3,12.4c1.7-0.3,3.5-1,5.4-2.1c2.3-1.3,3.9-2.1,6.4-2.2l0,0c0,0,0.1,0,0.1,0
						c0,0,0.1,0,0.1,0l0,0c2.5-0.1,4.2,0.5,6.6,1.7c2,1,3.9,1.5,5.7,1.7c6.4,0.7,10.5-3.8,7.2-13C55.9-161.8,55.9-161.9,55.8-162.1z
						"/>
					<path class="st2" d="M64.9-186.3c-0.7-0.5-1.6-0.9-2.4-1c-1.4-0.2-2.8,0.3-4,1.2c-1.9,1.5-3.3,4.1-3.7,7.3
						c-0.6,5.1,1.9,9.6,5.5,10c3.6,0.4,7-3.4,7.6-8.5C68.4-181.1,67.1-184.6,64.9-186.3z"/>
					<path class="st2" d="M11-184.2c-1.3-0.8-2.7-1.2-4-0.9c-0.9,0.2-1.7,0.6-2.4,1.2c-2.1,1.8-3.1,5.4-2.4,9.2
						c1,5.1,4.7,8.6,8.3,7.9c3.6-0.7,5.7-5.4,4.7-10.4C14.6-180.4,13-182.9,11-184.2z"/>
					<path class="st2" d="M45.2-184c1.3-0.1,2.5-0.6,3.5-1.6c1.8-1.7,2.8-4.7,2.7-7.9c-0.2-4.1-2.1-7.4-4.7-8.6
						c-0.7-0.3-1.5-0.5-2.2-0.4c-3.6,0.1-6.4,4.4-6.2,9.6C38.5-188,41.6-183.9,45.2-184z"/>
					<path class="st2" d="M20.6-184.6c1.1,0.9,2.3,1.4,3.6,1.4c3.6-0.1,6.4-4.4,6.2-9.6c-0.2-5.2-3.3-9.2-7-9.1
						c-0.4,0-0.7,0.1-1.1,0.2c-3.1,0.9-5.3,4.8-5.2,9.4C17.4-189,18.7-186.2,20.6-184.6z"/>
				</g>
				<g>
					<path class="st2" d="M405.8-162.1c-3.1-8.2-11.8-19.9-20.5-19.8l0,0c0,0,0,0,0,0c0,0,0,0,0,0l0,0c-8.7,0.6-16.5,13-18.9,21.4
						c0,0.2-0.1,0.3-0.1,0.5c-2.6,9.5,1.9,13.6,8.3,12.4c1.7-0.3,3.5-1,5.4-2.1c2.3-1.3,3.9-2.1,6.4-2.2l0,0c0,0,0.1,0,0.1,0
						c0,0,0.1,0,0.1,0l0,0c2.5-0.1,4.2,0.5,6.6,1.7c2,1,3.9,1.5,5.7,1.7c6.4,0.7,10.5-3.8,7.2-13
						C405.9-161.8,405.9-161.9,405.8-162.1z"/>
					<path class="st2" d="M414.9-186.3c-0.7-0.5-1.6-0.9-2.4-1c-1.4-0.2-2.8,0.3-4,1.2c-1.9,1.5-3.3,4.1-3.7,7.3
						c-0.6,5.1,1.9,9.6,5.5,10c3.6,0.4,7-3.4,7.6-8.5C418.4-181.1,417.1-184.6,414.9-186.3z"/>
					<path class="st2" d="M361-184.2c-1.3-0.8-2.7-1.2-4-0.9c-0.9,0.2-1.7,0.6-2.4,1.2c-2.1,1.8-3.1,5.4-2.4,9.2
						c1,5.1,4.7,8.6,8.3,7.9c3.6-0.7,5.7-5.4,4.7-10.4C364.6-180.4,363-182.9,361-184.2z"/>
					<path class="st2" d="M395.2-184c1.3-0.1,2.5-0.6,3.5-1.6c1.8-1.7,2.8-4.7,2.7-7.9c-0.2-4.1-2.1-7.4-4.7-8.6
						c-0.7-0.3-1.5-0.5-2.2-0.4c-3.6,0.1-6.4,4.4-6.2,9.6C388.5-188,391.6-183.9,395.2-184z"/>
					<path class="st2" d="M370.6-184.6c1.1,0.9,2.3,1.4,3.6,1.4c3.6-0.1,6.4-4.4,6.2-9.6c-0.2-5.2-3.3-9.2-7-9.1
						c-0.4,0-0.7,0.1-1.1,0.2c-3.1,0.9-5.3,4.8-5.2,9.4C367.4-189,368.7-186.2,370.6-184.6z"/>
				</g>
				<g>
					<path class="st2" d="M231.1-162.1c-4.7-7.4-15.5-17.2-24.1-15.3l0,0c0,0,0,0,0,0c0,0,0,0,0,0l0,0c-8.4,2.3-13.5,16-14.3,24.7
						c0,0.2,0,0.3,0,0.5c-0.7,9.9,4.6,13,10.6,10.5c1.6-0.7,3.3-1.7,4.9-3.2c2-1.8,3.4-2.9,5.8-3.4l0,0c0,0,0.1,0,0.1,0
						c0,0,0.1,0,0.1,0l0,0c2.4-0.6,4.2-0.3,6.8,0.3c2.1,0.5,4.1,0.7,5.9,0.5c6.4-0.6,9.6-5.8,4.5-14.2
						C231.3-161.8,231.2-161.9,231.1-162.1z"/>
					<path class="st2" d="M235.2-187.6c-0.8-0.4-1.7-0.6-2.6-0.5c-1.4,0.1-2.6,0.9-3.6,2c-1.6,1.8-2.4,4.7-2.2,7.9
						c0.4,5.1,3.8,9,7.4,8.7c3.6-0.3,6.2-4.7,5.8-9.9C239.7-183.2,237.7-186.4,235.2-187.6z"/>
					<path class="st2" d="M182.8-174.8c-1.4-0.6-2.8-0.6-4.1-0.1c-0.8,0.3-1.5,0.9-2.1,1.6c-1.7,2.2-2,5.9-0.5,9.5
						c2,4.8,6.3,7.5,9.7,6.1c3.4-1.4,4.5-6.4,2.5-11.2C187.1-171.7,185-173.9,182.8-174.8z"/>
					<path class="st2" d="M216.4-181.5c1.3-0.3,2.4-1.1,3.1-2.3c1.4-2,1.9-5.1,1.1-8.3c-1-3.9-3.6-6.9-6.4-7.5
						c-0.7-0.2-1.5-0.2-2.3,0c-3.5,0.9-5.4,5.6-4.2,10.6C209-184,212.8-180.6,216.4-181.5z"/>
					<path class="st2" d="M192.1-177.1c1.2,0.7,2.6,0.9,3.8,0.6c3.5-0.9,5.4-5.6,4.2-10.6c-1.2-5-5.1-8.4-8.6-7.5
						c-0.4,0.1-0.7,0.2-1,0.4c-2.9,1.5-4.3,5.8-3.2,10.2C188.1-180.8,189.9-178.3,192.1-177.1z"/>
				</g>
			</g>
		</g>
	</g>
</pattern>
<pattern  id="SVGID_3_" xlink:href="#paws_6" patternTransform="matrix(0.4 0 0 0.4 -4283.5073 -4148.8276)">
</pattern>
<rect x="0" y="0.3" class="st3" width="1920" height="1080"/>
</svg>
